<svg width="51" height="45" viewBox="0 0 51 45" fill="none" xmlns="http://www.w3.org/2000/svg">
<path d="M40.2094 0.394318H34.2672H28.325C22.5917 0.394318 17.8271 5.05982 17.8271 10.7931C17.8271 16.023 21.8069 20.3636 26.8395 21.0861V25.6486C26.8395 26.2491 27.2006 26.7918 27.7563 27.0209C28.3043 27.2496 28.947 27.127 29.3754 26.6989L34.2672 21.8071L34.8823 21.1919H40.2094C45.9427 21.1919 50.7072 16.5264 50.7072 10.7931C50.7072 5.05982 45.9427 0.394318 40.2094 0.394318Z" fill="#FED843"/>
<path d="M40.2078 21.1919C45.9411 21.1919 50.7057 16.5264 50.7057 10.7931C50.7057 5.05982 45.9411 0.394318 40.2078 0.394318H34.2656V21.8071L34.8807 21.1919H40.2078Z" fill="#FABE2C"/>
<path d="M37.8319 34.5619V40.504C37.8319 43.0889 35.7214 44.9607 33.396 44.9607C24.8383 44.9607 16.4895 40.9151 10.28 34.7302C4.07039 28.5454 0 20.2214 0 11.6637C0 9.2056 1.99954 7.22784 4.45663 7.22784H10.3988C11.0386 7.22784 11.6061 7.63686 11.8071 8.24297L14.7782 17.1354C14.9238 17.5712 14.8594 18.0486 14.6059 18.4298L12.0864 22.2101C13.0411 24.2126 14.7307 26.4013 16.6817 28.3285C18.6337 30.2548 20.8471 31.9196 22.8497 32.8743L26.6299 30.3548C27.0131 30.1023 27.4885 30.0359 27.9243 30.1825L36.8375 33.1536C37.4437 33.3546 37.8319 33.9221 37.8319 34.5619Z" fill="#FF641A"/>
<path d="M37.8322 34.5619V40.504C37.8322 43.0889 35.7217 44.9607 33.3963 44.9607C24.8386 44.9607 16.4899 40.915 10.2803 34.7302L16.682 28.3285C18.634 30.2548 20.8474 31.9196 22.85 32.8743L26.6302 30.3548C27.0135 30.1023 27.4888 30.0359 27.9246 30.1825L36.8379 33.1536C37.444 33.3546 37.8322 33.9221 37.8322 34.5619Z" fill="#F03800"/>
<path d="M28.3244 12.2786C29.1449 12.2786 29.81 11.6135 29.81 10.793C29.81 9.9726 29.1449 9.3075 28.3244 9.3075C27.504 9.3075 26.8389 9.9726 26.8389 10.793C26.8389 11.6135 27.504 12.2786 28.3244 12.2786Z" fill="#613D5C"/>
<path d="M34.2668 12.2785C35.0872 12.2785 35.7523 11.6134 35.7523 10.793C35.7523 9.97254 35.0872 9.30743 34.2668 9.30743C33.4464 9.30743 32.7812 9.97254 32.7812 10.793C32.7812 11.6134 33.4464 12.2785 34.2668 12.2785Z" fill="#613D5C"/>
<path d="M35.7512 10.793C35.7512 9.97256 35.086 9.30743 34.2656 9.30743V12.2785C35.086 12.2785 35.7512 11.6134 35.7512 10.793Z" fill="#4B2746"/>
<path d="M40.2092 12.2786C41.0296 12.2786 41.6947 11.6135 41.6947 10.793C41.6947 9.9726 41.0296 9.3075 40.2092 9.3075C39.3887 9.3075 38.7236 9.9726 38.7236 10.793C38.7236 11.6135 39.3887 12.2786 40.2092 12.2786Z" fill="#4B2746"/>
</svg>
