<svg width="51" height="50" viewBox="0 0 51 50" fill="none" xmlns="http://www.w3.org/2000/svg">
<path d="M0.582031 27.7766H30.6891V49.9607H2.56276C2.03744 49.9607 1.53363 49.752 1.16217 49.3805C0.790714 49.0091 0.582031 48.5053 0.582031 47.98V27.7766Z" fill="#F94267"/>
<path d="M6.91992 27.7765H13.2582V49.9607H6.91992V27.7765Z" fill="#FED672"/>
<path d="M48.7397 21.2762L20.966 4.41703C20.0307 3.84929 18.8122 4.14725 18.2445 5.08256L16.1885 8.4696C15.6207 9.40491 15.9187 10.6234 16.854 11.1911L44.6277 28.0503C45.563 28.618 46.7815 28.3201 47.3493 27.3847L49.4052 23.9977C49.973 23.0624 49.675 21.8439 48.7397 21.2762Z" fill="#F94267"/>
<path d="M27.3047 0.850372L33.0627 4.34556C34.4101 5.16349 35.3775 6.48319 35.7519 8.01434C36.1263 9.54549 35.8772 11.1627 35.0592 12.5101L34.8536 12.8488L29.0957 9.35363C27.7482 8.5357 26.7809 7.21601 26.4064 5.68486C26.032 4.15371 26.2812 2.53653 27.0991 1.18908L27.3047 0.850372Z" fill="#FED672"/>
<path d="M40.6274 16.3035L34.8695 12.8083L35.0751 12.4696C35.893 11.1222 37.2127 10.1548 38.7438 9.78041C40.275 9.40598 41.8922 9.65513 43.2396 10.4731L48.9976 13.9682L48.792 14.3069C47.9741 15.6544 46.6544 16.6217 45.1232 16.9962C43.5921 17.3706 41.9749 17.1214 40.6274 16.3035Z" fill="#FED672"/>
<path d="M31.4658 10.7906L38.2399 14.9025L34.1279 21.6766L27.3538 17.5646L31.4658 10.7906Z" fill="#FED672"/>
<path d="M4.54348 12.7231L3.14291 15.2839L0.582031 16.6845L3.14291 18.0851L4.54348 20.646L5.94406 18.0851L8.50494 16.6845L5.94406 15.2839L4.54348 12.7231Z" fill="#FED672"/>
<path d="M18.5338 24.8206L17.0076 24.3942C17.1294 23.9584 17.2491 23.4493 17.2144 22.9741C17.1853 22.5742 17.0315 22.2175 16.813 22.0431C16.5845 21.8609 16.2242 21.8023 15.8071 21.7343C15.6276 21.7045 15.442 21.6748 15.2525 21.6319C14.2482 21.405 13.4251 20.8595 12.9351 20.0957C12.3221 19.1418 12.3111 17.8783 12.9082 17.0232L14.2075 17.9304C13.9797 18.2567 14.0063 18.8316 14.2682 19.2392C14.6247 19.7945 15.2572 20.0083 15.6022 20.0864C15.7449 20.1186 15.8993 20.1437 16.0625 20.1703C16.6187 20.2609 17.249 20.3636 17.8016 20.8041C18.3711 21.2583 18.7333 22.007 18.7954 22.8584C18.8472 23.5768 18.6922 24.2534 18.5338 24.8206Z" fill="#FED672"/>
<path d="M10.0901 7.17701C11.8403 7.17701 13.2592 5.75813 13.2592 4.00785C13.2592 2.25757 11.8403 0.838684 10.0901 0.838684C8.33978 0.838684 6.9209 2.25757 6.9209 4.00785C6.9209 5.75813 8.33978 7.17701 10.0901 7.17701Z" fill="#FED672"/>
<path d="M2.16699 7.9693H3.75157V9.55388H2.16699V7.9693Z" fill="#F94267"/>
<path d="M10.8818 11.9308H12.4664V13.5153H10.8818V11.9308Z" fill="#F94267"/>
<path d="M8.50586 23.0228H10.0904V24.6074H8.50586V23.0228Z" fill="#F94267"/>
<path d="M21.9746 19.8537H23.5592V21.4382H21.9746V19.8537Z" fill="#F94267"/>
<path d="M48.7141 34.1149H23.757C23.21 34.1149 22.7666 34.5583 22.7666 35.1053V48.9703C22.7666 49.5173 23.21 49.9607 23.757 49.9607H48.7141C49.2611 49.9607 49.7045 49.5173 49.7045 48.9703V35.1053C49.7045 34.5583 49.2611 34.1149 48.7141 34.1149Z" fill="#4AB4E6"/>
<path d="M40.1963 43.6224V42.0378L49.7038 35.7108V37.284L40.1963 43.6224Z" fill="#3D95D6"/>
<path d="M32.2731 43.6224L22.7656 37.2841V35.7108L32.2731 42.0378V43.6224Z" fill="#3D95D6"/>
<path d="M33.2304 40.4532H33.0464C32.2416 40.4564 31.4623 40.7361 30.8392 41.2455L30.8085 41.2703C30.2647 41.7184 29.582 41.9635 28.8773 41.9635C28.1727 41.9635 27.4899 41.7184 26.9461 41.2703L25.9346 40.4532V40.8494C25.9346 44.1311 28.4049 46.7915 31.4523 46.7915H33.2916C34.9443 46.7915 36.2788 45.3242 36.233 43.5332C36.1893 41.8071 34.8338 40.4532 33.2304 40.4532Z" fill="#FED672"/>
<path d="M39.2381 40.4532H39.4221C40.2269 40.4564 41.0062 40.7361 41.6292 41.2455L41.6599 41.2703C42.2037 41.7184 42.8865 41.9635 43.5911 41.9635C44.2958 41.9635 44.9786 41.7184 45.5224 41.2703L46.5339 40.4532V40.8494C46.5339 44.1312 44.0636 46.7916 41.0162 46.7916H39.1769C37.5242 46.7916 36.1897 45.3242 36.2355 43.5333C36.2792 41.8072 37.6347 40.4532 39.2381 40.4532Z" fill="#FED672"/>
</svg>
