<svg width="51" height="52" viewBox="0 0 51 52" fill="none" xmlns="http://www.w3.org/2000/svg">
<path d="M25.3533 51.4173C39.3555 51.4173 50.7066 40.0663 50.7066 26.0641C50.7066 12.0618 39.3555 0.710754 25.3533 0.710754C11.3511 0.710754 0 12.0618 0 26.0641C0 40.0663 11.3511 51.4173 25.3533 51.4173Z" fill="#FFD15D"/>
<path d="M50.5646 28.7529L37.2937 15.4819L32.0615 11.8865H19.3777L10.9658 20.2983V31.6981L13.2273 36.4339L28.0661 51.2727C39.9091 50.0127 49.3158 40.5992 50.5646 28.7529Z" fill="#F9B54C"/>
<path d="M25.3538 10.1008C16.5518 10.1008 9.39062 17.2619 9.39062 26.064C9.39062 34.8661 16.5518 42.0272 25.3538 42.0272C34.1557 42.0272 41.317 34.8661 41.317 26.064C41.317 17.2618 34.1559 10.1008 25.3538 10.1008ZM33.8305 25.0397C33.7834 23.5753 33.636 22.1701 33.4003 20.8474C34.1314 21.0962 34.8217 21.3797 35.4592 21.6985C37.3512 22.6445 38.6088 23.8232 39.0695 25.0395H33.8305V25.0397ZM31.779 25.0397H26.3781V19.6388C28.0605 19.6973 29.6816 19.899 31.1853 20.2324C31.519 21.7362 31.7206 23.3572 31.779 25.0397ZM26.3781 17.5873V12.3485C27.5944 12.8093 28.7731 14.0666 29.7191 15.9587C30.0379 16.5962 30.3215 17.2865 30.5702 18.0176C29.248 17.7818 27.8425 17.6344 26.3781 17.5873ZM24.3295 12.3485V17.5873C22.8651 17.6344 21.4599 17.7818 20.1372 18.0175C20.386 17.2864 20.6695 16.5963 20.9883 15.9586C21.9345 14.0666 23.1131 12.8093 24.3295 12.3485ZM24.3295 19.6388V25.0397H18.9286C18.987 23.3573 19.1888 21.7362 19.5222 20.2324C21.026 19.899 22.6472 19.6972 24.3295 19.6388ZM16.8773 25.0397H11.6383C12.0991 23.8232 13.3564 22.6447 15.2486 21.6987C15.8861 21.3799 16.5764 21.0963 17.3075 20.8476C17.0716 22.17 16.9244 23.5753 16.8773 25.0397ZM16.8773 27.0883C16.9244 28.5527 17.0718 29.9579 17.3075 31.2806C16.5764 31.0318 15.8861 30.7483 15.2486 30.4295C13.3566 29.4835 12.099 28.3048 11.6383 27.0885H16.8773V27.0883ZM18.9286 27.0883H24.3295V32.4892C22.6471 32.4307 21.026 32.229 19.5222 31.8956C19.1888 30.3918 18.9869 28.7708 18.9286 27.0883ZM24.3295 34.5407V39.7795C23.1132 39.3187 21.9345 38.0614 20.9885 36.1693C20.6697 35.5318 20.3861 34.8415 20.1374 34.1104C21.4598 34.3462 22.8652 34.4936 24.3295 34.5407ZM26.3781 39.7795V34.5407C27.8425 34.4936 29.2477 34.3462 30.5704 34.1105C30.3216 34.8416 30.0381 35.5317 29.7193 36.1694C28.7733 38.0614 27.5946 39.3187 26.3781 39.7795ZM26.3781 32.4892V27.0883H31.779C31.7205 28.7707 31.5188 30.3918 31.1853 31.8956C29.6818 32.229 28.0606 32.4308 26.3781 32.4892ZM33.8305 27.0883H39.0693C38.6085 28.3048 37.3512 29.4833 35.459 30.4293C34.8215 30.7481 34.1312 31.0317 33.4001 31.2804C33.636 29.958 33.7834 28.5527 33.8305 27.0883ZM38.334 21.0603C36.9152 20.0096 35.0517 19.1461 32.8773 18.5407C32.2719 16.3665 31.4084 14.5028 30.3577 13.084C34.0105 14.497 36.9208 17.4075 38.334 21.0603ZM20.3501 13.084C19.2994 14.5028 18.4359 16.3665 17.8305 18.5407C15.6563 19.1461 13.7926 20.0096 12.3738 21.0603C13.7867 17.4075 16.6973 14.497 20.3501 13.084ZM12.3738 31.0677C13.7926 32.1184 15.6561 32.9819 17.8305 33.5873C18.4359 35.7615 19.2994 37.6252 20.3501 39.044C16.6973 37.631 13.7867 34.7205 12.3738 31.0677ZM30.3577 39.044C31.4084 37.6252 32.2719 35.7615 32.8773 33.5873C35.0515 32.9819 36.9152 32.1184 38.334 31.0677C36.9208 34.7205 34.0105 37.631 30.3577 39.044Z" fill="#324A5E"/>
<path d="M25.3537 10.1008C25.3346 10.1008 25.3158 10.1015 25.2969 10.1015V42.0266C25.3158 42.0266 25.3348 42.0273 25.3537 42.0273C34.1559 42.0273 41.3169 34.8662 41.3169 26.0641C41.3169 17.2619 34.1559 10.1008 25.3537 10.1008ZM38.3339 21.0603C36.9151 20.0096 35.0517 19.1461 32.8772 18.5407C32.2718 16.3665 31.4083 14.5028 30.3576 13.084C34.0104 14.497 36.9208 17.4075 38.3339 21.0603ZM39.0693 25.0397H33.8304C33.7833 23.5753 33.6359 22.1701 33.4002 20.8474C34.1313 21.0962 34.8216 21.3797 35.4591 21.6985C37.3511 22.6447 38.6086 23.8232 39.0693 25.0397ZM26.3781 12.3485C27.5943 12.8093 28.7731 14.0666 29.719 15.9587C30.0378 16.5962 30.3214 17.2865 30.5702 18.0176C29.2477 17.7818 27.8422 17.6345 26.3779 17.5874V12.3485H26.3781ZM26.3781 19.6388C28.0604 19.6973 29.6815 19.899 31.1853 20.2324C31.5187 21.7362 31.7205 23.3574 31.7789 25.0397H26.3781V19.6388ZM26.3781 27.0883H31.7789C31.7205 28.7707 31.5187 30.3918 31.1853 31.8956C29.6815 32.229 28.0603 32.4307 26.3781 32.4892V27.0883ZM26.3781 39.7795V34.5407C27.8424 34.4936 29.2476 34.3462 30.5704 34.1105C30.3215 34.8416 30.038 35.5317 29.7192 36.1694C28.7732 38.0614 27.5945 39.3187 26.3781 39.7795ZM30.3576 39.044C31.4083 37.6252 32.2718 35.7615 32.8772 33.5873C35.0515 32.9819 36.9151 32.1184 38.3339 31.0677C36.9208 34.7205 34.0104 37.631 30.3576 39.044ZM35.459 30.4294C34.8215 30.7482 34.1312 31.0318 33.4001 31.2805C33.6359 29.9579 33.7832 28.5526 33.8303 27.0882H39.0692C38.6084 28.3048 37.3511 29.4833 35.459 30.4294Z" fill="#2B3B4E"/>
</svg>
